<?xml version="1.0" encoding="UTF-8"?>
<svg id="Layer_2" data-name="Layer 2" xmlns="http://www.w3.org/2000/svg" viewBox="0 0 70.48 189.7">
  <defs>
    <style>
      .cls-1 {
        fill: #a37b36;
      }

      .cls-2 {
        fill: #b89bc9;
      }

      .cls-3 {
        fill: #ed1968;
      }
    </style>
  </defs>
  <g id="Layer_1-2" data-name="Layer 1">
    <g id="logo">
      <path class="cls-3" d="m35.24,0c43.63,47.28,46.55,125.82,9.83,177.84-2.86,3.95-5.89,7.9-9.83,11.86-3.95-3.95-6.98-7.9-9.83-11.86C-11.32,125.83-8.39,47.28,35.24,0h0Z"/>
      <path class="cls-2" d="m35.24,3.74c.25,7.49,1.39,14.98,2.8,22.47,1.56,7.6,2.88,15.32,6.12,22.47,5.81,13.17,17.81,25.46,22.15,39.31,1.09,3.67,2.33,7.41,1.65,11.23-1.1,6.23-6.4,11.37-9.21,16.85-1.03,1.87-1.74,3.74-2.39,5.62-7.35,20.36-14.66,41.17-21.12,61.78-6.45-20.6-13.77-41.43-21.12-61.78-.65-1.87-1.36-3.74-2.39-5.62-2.81-5.48-8.12-10.62-9.21-16.85-.67-3.82.57-7.57,1.65-11.23,4.34-13.85,16.34-26.15,22.15-39.31,3.24-7.15,4.56-14.87,6.12-22.47,1.41-7.49,2.55-14.98,2.8-22.47h0Z"/>
      <path class="cls-1" d="m35.24,89.85c.87,4.59,5.48,8.83,8.98,12.03.37.16,1.58.15,2.08.19,2.69.11,12.96.37,15.49.55,0,0,.24.02.24.02.36.03.41.06.4.1-.03,2.1-.91,3.74-2.34,5.44-2.62,3.09-7.81,6.23-11.13,9.16-3.08,2.46-4.8,5.46-5.34,9.17-.91,4.07-1.46,8.15-1.6,12.22-.32,12.21,2.62,24.4,2.22,36.66-2.74,4.24-5.57,8.31-9,12.22-3.43-3.91-6.26-7.98-9-12.22-.43-16.36,4.72-32.68.62-48.88-.81-8.8-11.5-12.54-16.47-18.33-1.43-1.7-2.31-3.34-2.34-5.44-.01-.03.04-.06.4-.1,0,0,.24-.02.24-.02,2.45-.17,12.83-.45,15.49-.55.51-.05,1.71-.03,2.08-.19,3.5-3.2,8.11-7.44,8.98-12.03h0Z"/>
    </g>
  </g>
</svg>